# xmcd
#
# Track frame offsets:
#	150
#	16736
#	29678
#	40743
#	54521
#	72703
#	83628
#	100707
#	116373
#	126332
#	136133
#	152216
#	163755
#	186697
#	196935
#	209787
#
# Disc length: 3021 seconds
#
# Revision: 2
# Processed by: cddbd v1.5.2PL0 Copyright (c) Steve Scherf et al.
# Submitted via: audiograbber 1.83.01
#
DISCID=e70bcb10
DTITLE=Various Artist - A Country Christmas CD1
DYEAR=1900
DGENRE=Christmas
TTITLE0=Willie Nelson - Pretty Paper
TTITLE1=Gene Autry - Rudolph the Red Nosed Reindeer
TTITLE2=Kitty Wells - Here Comes Santa Claus
TTITLE3=Waylon Jennings - Away In Manger
TTITLE4=Brenda Lee - Silent Night
TTITLE5=Porter Wagoner - Jingle Bells
TTITLE6=Charly Pride - O Little Town Of Bethlehem
TTITLE7=Crystal Gayle - What Child Is This
TTITLE8=Gene Autry - Santa Claus Is Coming To Town
TTITLE9=Kitty Wells - Dasher With The Light Upon His Tail
TTITLE10=Willie Nelson - It Came Upon A Midnight Clear
TTITLE11=Merle Haggard - If We Make It Trough December
TTITLE12=Lee Greenwood - The Twelve Days Of Christmas
TTITLE13=Gene Autry - Sleigh Bells
TTITLE14=Kitty Wells - Christmas Ain't Like Christmas Anymore
TTITLE15=Glen Campbell - O Holy Night
EXTD=
EXTT0=
EXTT1=
EXTT2=
EXTT3=
EXTT4=
EXTT5=
EXTT6=
EXTT7=
EXTT8=
EXTT9=
EXTT10=
EXTT11=
EXTT12=
EXTT13=
EXTT14=
EXTT15=
PLAYORDER=
